<svg width="528" height="638" viewBox="0 0 528 638" fill="none" xmlns="http://www.w3.org/2000/svg">
<rect x="2" width="526" height="638" fill="#0D0D0E"/>
<path d="M175.672 395.89C183.651 395.89 190.57 397.448 196.429 400.565C202.413 403.557 207.026 408.17 210.267 414.403C213.633 420.636 215.316 428.49 215.316 437.965V495H202.039V439.274C202.039 428.927 199.546 421.135 194.559 415.899C189.697 410.538 182.778 407.858 173.802 407.858C167.07 407.858 161.211 409.292 156.224 412.159C151.362 414.902 147.56 418.953 144.817 424.314C142.199 429.55 140.89 435.908 140.89 443.388V495H127.613V439.274C127.613 428.927 125.12 421.135 120.133 415.899C115.146 410.538 108.165 407.858 99.189 407.858C92.5817 407.858 86.7847 409.292 81.798 412.159C76.8113 414.902 72.9467 418.953 70.204 424.314C67.586 429.55 66.277 435.908 66.277 443.388V495H53V396.825H65.716V423.379L63.659 418.704C66.651 411.598 71.4507 406.05 78.058 402.061C84.79 397.947 92.7063 395.89 101.807 395.89C111.406 395.89 119.572 398.321 126.304 403.183C133.036 407.92 137.399 415.089 139.394 424.688L134.158 422.631C137.025 414.652 142.074 408.232 149.305 403.37C156.66 398.383 165.449 395.89 175.672 395.89Z" fill="white"/>
<path d="M290.405 495.935C281.055 495.935 272.64 493.816 265.16 489.577C257.805 485.338 252.008 479.479 247.769 471.999C243.531 464.394 241.411 455.668 241.411 445.819C241.411 435.846 243.531 427.119 247.769 419.639C252.008 412.159 257.805 406.362 265.16 402.248C272.64 398.009 281.055 395.89 290.405 395.89C299.007 395.89 306.674 397.822 313.406 401.687C320.263 405.552 325.686 411.224 329.675 418.704C333.789 426.059 335.846 435.098 335.846 445.819C335.846 456.416 333.852 465.454 329.862 472.934C325.873 480.414 320.45 486.149 313.593 490.138C306.861 494.003 299.132 495.935 290.405 495.935ZM291.34 484.154C298.322 484.154 304.555 482.596 310.04 479.479C315.65 476.238 320.014 471.75 323.13 466.015C326.372 460.156 327.992 453.424 327.992 445.819C327.992 438.09 326.372 431.358 323.13 425.623C320.014 419.888 315.65 415.463 310.04 412.346C304.555 409.105 298.322 407.484 291.34 407.484C284.484 407.484 278.313 409.105 272.827 412.346C267.342 415.463 262.979 419.888 259.737 425.623C256.496 431.358 254.875 438.09 254.875 445.819C254.875 453.424 256.496 460.156 259.737 466.015C262.979 471.75 267.342 476.238 272.827 479.479C278.313 482.596 284.484 484.154 291.34 484.154ZM328.366 495V465.454L329.675 445.632L327.805 425.81V356.246H341.082V495H328.366Z" fill="white"/>
<path d="M428.736 495.935C420.134 495.935 412.404 494.003 405.548 490.138C398.691 486.149 393.268 480.414 389.279 472.934C385.289 465.454 383.295 456.416 383.295 445.819C383.295 435.098 385.289 426.059 389.279 418.704C393.393 411.224 398.878 405.552 405.735 401.687C412.591 397.822 420.258 395.89 428.736 395.89C438.086 395.89 446.438 398.009 453.794 402.248C461.274 406.362 467.133 412.159 471.372 419.639C475.61 427.119 477.73 435.846 477.73 445.819C477.73 455.668 475.61 464.394 471.372 471.999C467.133 479.479 461.274 485.338 453.794 489.577C446.438 493.816 438.086 495.935 428.736 495.935ZM378.059 495V356.246H391.336V425.81L389.466 445.632L390.775 465.454V495H378.059ZM427.801 484.154C434.782 484.154 441.015 482.596 446.501 479.479C451.986 476.238 456.349 471.75 459.591 466.015C462.832 460.156 464.453 453.424 464.453 445.819C464.453 438.09 462.832 431.358 459.591 425.623C456.349 419.888 451.986 415.463 446.501 412.346C441.015 409.105 434.782 407.484 427.801 407.484C420.819 407.484 414.524 409.105 408.914 412.346C403.428 415.463 399.065 419.888 395.824 425.623C392.707 431.358 391.149 438.09 391.149 445.819C391.149 453.424 392.707 460.156 395.824 466.015C399.065 471.75 403.428 476.238 408.914 479.479C414.524 482.596 420.819 484.154 427.801 484.154Z" fill="white"/>
<path d="M53.0788 586.659V550.815H57.8661V586.659H53.0788ZM55.5062 542.896C54.5172 542.896 53.6857 542.554 53.0114 541.871C52.3371 541.189 52 540.369 52 539.414C52 538.458 52.3371 537.661 53.0114 537.024C53.6857 536.341 54.5172 536 55.5062 536C56.4951 536 57.3267 536.319 58.0009 536.956C58.6752 537.593 59.0123 538.39 59.0123 539.345C59.0123 540.347 58.6752 541.189 58.0009 541.871C57.3716 542.554 56.54 542.896 55.5062 542.896Z" fill="white"/>
<path d="M108.81 550.474C111.687 550.474 114.204 551.043 116.362 552.181C118.565 553.273 120.273 554.957 121.486 557.233C122.745 559.509 123.374 562.376 123.374 565.835V586.659H118.587V566.313C118.587 562.535 117.643 559.691 115.755 557.779C113.912 555.822 111.305 554.843 107.934 554.843C105.416 554.843 103.214 555.367 101.326 556.414C99.4829 557.415 98.0445 558.894 97.0106 560.851C96.0217 562.763 95.5273 565.084 95.5273 567.815V586.659H90.74V550.815H95.325V560.647L94.5833 558.803C95.7071 556.209 97.5051 554.183 99.9774 552.727C102.45 551.225 105.394 550.474 108.81 550.474Z" fill="white"/>
<path d="M167.052 587C163.725 587 161.163 586.09 159.365 584.269C157.567 582.448 156.668 579.877 156.668 576.554V542.896H161.455V576.281C161.455 578.375 161.972 579.991 163.006 581.129C164.085 582.266 165.613 582.835 167.591 582.835C169.704 582.835 171.457 582.221 172.85 580.992L174.536 584.474C173.592 585.339 172.446 585.976 171.097 586.386C169.794 586.795 168.445 587 167.052 587ZM150.33 554.843V550.815H172.243V554.843H150.33Z" fill="white"/>
<path d="M216.589 587C212.903 587 209.667 586.226 206.88 584.679C204.093 583.086 201.913 580.924 200.34 578.193C198.766 575.416 197.98 572.253 197.98 568.703C197.98 565.153 198.721 562.012 200.205 559.281C201.733 556.55 203.801 554.411 206.408 552.863C209.06 551.27 212.027 550.474 215.308 550.474C218.635 550.474 221.579 551.248 224.141 552.795C226.748 554.297 228.793 556.436 230.277 559.213C231.76 561.944 232.502 565.107 232.502 568.703C232.502 568.93 232.479 569.181 232.434 569.454C232.434 569.681 232.434 569.932 232.434 570.205H201.621V566.586H229.872L227.984 568.02C227.984 565.426 227.422 563.127 226.299 561.124C225.22 559.076 223.737 557.483 221.849 556.345C219.961 555.207 217.781 554.639 215.308 554.639C212.881 554.639 210.701 555.207 208.768 556.345C206.835 557.483 205.329 559.076 204.25 561.124C203.172 563.173 202.632 565.517 202.632 568.157V568.908C202.632 571.639 203.216 574.051 204.385 576.145C205.599 578.193 207.262 579.809 209.375 580.992C211.532 582.13 213.982 582.699 216.724 582.699C218.882 582.699 220.882 582.312 222.725 581.538C224.613 580.764 226.231 579.581 227.58 577.988L230.277 581.129C228.704 583.04 226.726 584.497 224.343 585.498C222.006 586.499 219.421 587 216.589 587Z" fill="white"/>
<path d="M261.8 586.659V550.815H266.385V560.578L265.913 558.871C266.902 556.141 268.565 554.07 270.902 552.659C273.24 551.202 276.139 550.474 279.6 550.474V555.185C279.42 555.185 279.241 555.185 279.061 555.185C278.881 555.139 278.701 555.116 278.521 555.116C274.79 555.116 271.869 556.277 269.756 558.598C267.643 560.874 266.587 564.129 266.587 568.361V586.659H261.8Z" fill="white"/>
<path d="M307.889 586.659V550.815H312.676V586.659H307.889ZM310.316 542.896C309.328 542.896 308.496 542.554 307.822 541.871C307.147 541.189 306.81 540.369 306.81 539.414C306.81 538.458 307.147 537.661 307.822 537.024C308.496 536.341 309.328 536 310.316 536C311.305 536 312.137 536.319 312.811 536.956C313.485 537.593 313.823 538.39 313.823 539.345C313.823 540.347 313.485 541.189 312.811 541.871C312.182 542.554 311.35 542.896 310.316 542.896Z" fill="white"/>
<path d="M359.979 587C356.563 587 353.484 586.226 350.742 584.679C348.045 583.086 345.91 580.924 344.337 578.193C342.763 575.416 341.977 572.253 341.977 568.703C341.977 565.107 342.763 561.944 344.337 559.213C345.91 556.482 348.045 554.343 350.742 552.795C353.439 551.248 356.518 550.474 359.979 550.474C363.486 550.474 366.587 551.248 369.284 552.795C372.026 554.343 374.161 556.482 375.69 559.213C377.263 561.944 378.05 565.107 378.05 568.703C378.05 572.253 377.263 575.416 375.69 578.193C374.161 580.924 372.026 583.086 369.284 584.679C366.542 586.226 363.441 587 359.979 587ZM359.979 582.699C362.542 582.699 364.812 582.13 366.79 580.992C368.767 579.809 370.318 578.17 371.442 576.076C372.611 573.937 373.195 571.479 373.195 568.703C373.195 565.881 372.611 563.423 371.442 561.329C370.318 559.236 368.767 557.62 366.79 556.482C364.812 555.299 362.564 554.707 360.047 554.707C357.53 554.707 355.282 555.299 353.304 556.482C351.326 557.62 349.753 559.236 348.584 561.329C347.416 563.423 346.831 565.881 346.831 568.703C346.831 571.479 347.416 573.937 348.584 576.076C349.753 578.17 351.326 579.809 353.304 580.992C355.282 582.13 357.507 582.699 359.979 582.699Z" fill="white"/>
<path d="M407.377 586.659V550.815H411.962V560.578L411.49 558.871C412.479 556.141 414.142 554.07 416.479 552.659C418.817 551.202 421.716 550.474 425.177 550.474V555.185C424.998 555.185 424.818 555.185 424.638 555.185C424.458 555.139 424.278 555.116 424.099 555.116C420.368 555.116 417.446 556.277 415.333 558.598C413.22 560.874 412.164 564.129 412.164 568.361V586.659H407.377Z" fill="white"/>
<path d="M463.369 587C460.447 587 457.682 586.59 455.075 585.771C452.468 584.906 450.423 583.837 448.939 582.562L451.097 578.739C452.535 579.831 454.378 580.787 456.626 581.606C458.873 582.38 461.233 582.767 463.706 582.767C467.077 582.767 469.504 582.244 470.988 581.197C472.471 580.104 473.213 578.671 473.213 576.896C473.213 575.576 472.786 574.552 471.932 573.823C471.123 573.05 470.044 572.481 468.695 572.116C467.347 571.707 465.841 571.365 464.178 571.092C462.514 570.819 460.851 570.501 459.188 570.137C457.57 569.772 456.086 569.249 454.738 568.566C453.389 567.838 452.288 566.859 451.434 565.631C450.625 564.402 450.22 562.763 450.22 560.715C450.22 558.758 450.76 557.005 451.839 555.458C452.917 553.91 454.491 552.704 456.559 551.839C458.671 550.929 461.233 550.474 464.245 550.474C466.538 550.474 468.83 550.793 471.123 551.43C473.415 552.021 475.303 552.818 476.786 553.819L474.696 557.711C473.123 556.618 471.437 555.845 469.639 555.39C467.841 554.889 466.043 554.639 464.245 554.639C461.054 554.639 458.694 555.207 457.165 556.345C455.682 557.438 454.94 558.849 454.94 560.578C454.94 561.944 455.345 563.013 456.154 563.787C457.008 564.561 458.109 565.175 459.458 565.631C460.851 566.04 462.357 566.382 463.975 566.655C465.639 566.928 467.279 567.269 468.897 567.679C470.561 568.043 472.066 568.566 473.415 569.249C474.809 569.886 475.91 570.819 476.719 572.048C477.573 573.232 478 574.802 478 576.759C478 578.853 477.416 580.673 476.247 582.221C475.123 583.723 473.46 584.906 471.257 585.771C469.1 586.59 466.47 587 463.369 587Z" fill="white"/>
</svg>
